<?xml version="1.0" encoding="utf-8"?>
<!-- Generator: Adobe Illustrator 16.0.0, SVG Export Plug-In . SVG Version: 6.00 Build 0)  -->
<!DOCTYPE svg PUBLIC "-//W3C//DTD SVG 1.1//EN" "http://www.w3.org/Graphics/SVG/1.1/DTD/svg11.dtd">
<svg version="1.1" id="Capa_1" xmlns="http://www.w3.org/2000/svg" xmlns:xlink="http://www.w3.org/1999/xlink" x="0px" y="0px"
	 width="100px" height="100px" viewBox="0 0 100 100" enable-background="new 0 0 100 100" xml:space="preserve">
<g>
	<circle fill="#EBEBEB" cx="50" cy="50" r="50"/>
	<g>
		<g id="Social-Medias-Rewards-Rating__x2F__Likes__x2F__like-1_1_">
			<g id="Group_26_1_">
				<g id="like-1_1_">
					
						<path id="Shape_130_4_" fill="none" stroke="#ED1F1F" stroke-width="3" stroke-linecap="round" stroke-linejoin="round" stroke-miterlimit="10" d="
						M40.006,44.741c5.518-1.684,12.723-10.749,12.723-18.898c0-3.561,4.935-4.896,6.771,1.623c1.128,4.019-2.26,11.914-2.26,11.914
						h14.306c2.502,0,4.204,1.519,4.418,3.385c0.232,2.042-0.597,3.602-3.877,3.602h-1.353c1.869,0,3.778,1.229,3.769,3.383
						c-0.007,2.362-1.681,3.385-3.55,3.385h-1.698"/>
					
						<path id="Shape_130_3_" fill="none" stroke="#ED1F1F" stroke-width="3" stroke-linecap="round" stroke-linejoin="round" stroke-miterlimit="10" d="
						M69.255,53.134L69.255,53.134c1.211,0,2.552,0.579,3.272,1.623c0.724,1.05,0.605,2.345,0.119,3.392
						c-0.483,1.047-1.912,1.752-3.123,1.752h-1.755c1.869,0,3.731,1.562,3.721,3.389c-0.011,2.002-1.724,3.159-3.595,3.159H53.857
						c-5.945,0-7.403-0.958-13.852-1.995"/>
					<g id="Rectangle-path_6_1_">
						<path fill="none" stroke="#ED1F1F" stroke-width="3" stroke-miterlimit="10" d="M24,41.498c0-0.55,0.45-1,1-1h10
							c0.55,0,1,0.45,1,1v26.055c0,0.55-0.45,1-1,1H25c-0.55,0-1-0.45-1-1V41.498z"/>
					</g>
				</g>
			</g>
		</g>
		<path fill="#ED1F1F" d="M32.19,62.666c0-1.257-1.023-2.281-2.278-2.281c-1.261,0-2.279,1.024-2.279,2.281
			c0,1.258,1.019,2.279,2.279,2.279C31.167,64.945,32.19,63.924,32.19,62.666z"/>
	</g>
</g>
</svg>
